<?xml version="1.0" encoding="UTF-8"?>
<svg id="Layer_2" data-name="Layer 2" xmlns="http://www.w3.org/2000/svg" version="1.1" viewBox="0 0 166.1 166.1">
  <defs>
    <style>
      .cls-1 {
        fill: #fff;
        isolation: isolate;
        opacity: .5;
        stroke-width: 0px;
      }

      .cls-2 {
        fill: none;
        stroke: #fff;
        stroke-miterlimit: 10;
        stroke-width: 2px;
      }
    </style>
  </defs>
  <g id="btn">
    <circle class="cls-2" cx="83.1" cy="83.1" r="82.1"/>
    <path class="cls-1" d="M133.2,64.8h-31.9v-31.9c0-3.4-2.7-6.1-6.1-6.1h-24.4c-3.3,0-6.1,2.7-6.1,6.1v31.9h-31.9c-3.4,0-6.1,2.7-6.1,6.1v24.4c0,3.3,2.7,6.1,6.1,6.1h31.9v31.9c0,3.4,2.7,6.1,6.1,6.1h24.4c3.3,0,6.1-2.7,6.1-6.1v-31.9h31.9c3.4,0,6.1-2.7,6.1-6.1v-24.4c0-3.3-2.7-6.1-6.1-6.1Z"/>
  </g>
</svg>