<?xml version="1.0" encoding="UTF-8"?><svg id="Layer_2" xmlns="http://www.w3.org/2000/svg" viewBox="0 0 166.1 166.1"><defs><style>.cls-1{fill:#fff;opacity:.5;stroke-width:0px;}.cls-2{fill:none;stroke:#fff;stroke-miterlimit:10;stroke-width:2px;}</style></defs><g id="btn"><circle class="cls-2" cx="83.05" cy="83.05" r="82.05"/><path class="cls-1" d="M133.21,64.8h-31.91v-31.91c0-3.35-2.72-6.07-6.07-6.07h-24.36c-3.35,0-6.07,2.72-6.07,6.07v31.91h-31.91c-3.35,0-6.07,2.72-6.07,6.07v24.36c0,3.35,2.72,6.07,6.07,6.07h31.91v31.91c0,3.35,2.72,6.07,6.07,6.07h24.36c3.35,0,6.07-2.72,6.07-6.07v-31.91h31.91c3.35,0,6.07-2.72,6.07-6.07v-24.36c0-3.35-2.72-6.07-6.07-6.07Z"/></g></svg>