<?xml version="1.0" encoding="UTF-8"?><svg id="Layer_2" xmlns="http://www.w3.org/2000/svg" viewBox="0 0 162.95 236.42"><defs><style>.cls-1{fill:#07171b;stroke:#07171b;}.cls-1,.cls-2,.cls-3,.cls-4,.cls-5,.cls-6,.cls-7,.cls-8,.cls-9,.cls-10,.cls-11,.cls-12,.cls-13,.cls-14,.cls-15,.cls-16,.cls-17,.cls-18,.cls-19,.cls-20,.cls-21,.cls-22{stroke-miterlimit:10;}.cls-1,.cls-2,.cls-3,.cls-4,.cls-6,.cls-7,.cls-9,.cls-11,.cls-12,.cls-13,.cls-14,.cls-15,.cls-16,.cls-17,.cls-18,.cls-20,.cls-21,.cls-22{stroke-width:.5px;}.cls-2{stroke:#000;}.cls-3{fill:#fff;stroke:#fff;}.cls-4{fill:#b04364;stroke:#b04364;}.cls-5{stroke:#271d22;}.cls-5,.cls-10{fill:#271d22;stroke-width:.56px;}.cls-6{fill:#413237;stroke:#413237;}.cls-23{fill:#a58567;stroke-width:0px;}.cls-7{fill:#4d4056;stroke:#4d4056;}.cls-8{fill:#f3916e;stroke:#f3916e;}.cls-9{fill:#ee3b6a;stroke:#ee3b6a;}.cls-10{stroke:#192524;}.cls-11{fill:#f06d6e;stroke:#f06d6e;}.cls-12{fill:#0d3a4d;stroke:#0d3a4d;}.cls-13{fill:#205d7a;stroke:#205d7a;}.cls-14{fill:#145066;stroke:#145066;}.cls-15{fill:#7d7d7d;stroke:#7d7d7d;}.cls-16{fill:#082833;stroke:#082833;}.cls-17{fill:#eaeaea;stroke:#eaeaea;}.cls-18{fill:#f7b56a;stroke:#f7b56a;}.cls-19{fill:#2d726f;stroke:#2d726f;stroke-width:.75px;}.cls-20{fill:#6a96a2;stroke:#6a96a2;}.cls-21{fill:#fdd3af;stroke:#fdd3af;}.cls-22{fill:#acc3cc;stroke:#acc3cc;}</style></defs><g id="Layer_14"><rect class="cls-21" x="118.21" y="59.23" width="14.75" height="14.75" transform="translate(251.17 133.21) rotate(-180)"/><rect class="cls-2" x="73.98" y="59.23" width="14.75" height="14.75" transform="translate(162.7 133.21) rotate(-180)"/><rect class="cls-10" x="44.49" y="59.23" width="14.75" height="14.75" transform="translate(103.72 133.21) rotate(-180)"/><rect class="cls-21" x="44.49" y="73.98" width="14.75" height="14.75" transform="translate(103.72 162.7) rotate(-180)"/><rect class="cls-21" x="118.21" y="88.72" width="14.75" height="14.75" transform="translate(251.17 192.19) rotate(-180)"/><rect class="cls-21" x="118.21" y="73.98" width="14.75" height="14.75" transform="translate(251.17 162.7) rotate(-180)"/><rect class="cls-5" x="132.96" y="88.72" width="14.75" height="14.75" transform="translate(280.66 192.19) rotate(-180)"/><rect class="cls-21" x="118.21" y="103.47" width="14.75" height="14.75" transform="translate(251.17 221.68) rotate(-180)"/><rect class="cls-21" x="103.47" y="88.72" width="14.75" height="14.75" transform="translate(221.68 192.19) rotate(-180)"/><rect class="cls-21" x="103.47" y="73.98" width="14.75" height="14.75" transform="translate(221.68 162.7) rotate(-180)"/><rect class="cls-21" x="73.98" y="88.72" width="14.75" height="14.75" transform="translate(162.7 192.19) rotate(-180)"/><rect class="cls-21" x="73.98" y="103.47" width="14.75" height="14.75" transform="translate(162.7 221.68) rotate(-180)"/><rect class="cls-21" x="88.72" y="88.72" width="14.75" height="14.75" transform="translate(192.19 192.19) rotate(-180)"/><rect class="cls-21" x="88.72" y="103.47" width="14.75" height="14.75" transform="translate(192.19 221.68) rotate(-180)"/><rect class="cls-21" x="59.23" y="88.72" width="14.75" height="14.75" transform="translate(133.21 192.19) rotate(-180)"/><rect class="cls-21" x="44.49" y="88.72" width="14.75" height="14.75" transform="translate(103.72 192.19) rotate(-180)"/><rect class="cls-21" x="103.47" y="103.47" width="14.75" height="14.75" transform="translate(221.68 221.68) rotate(-180)"/><rect class="cls-21" x="103.47" y="118.21" width="14.75" height="14.75" transform="translate(221.68 251.17) rotate(-180)"/><rect class="cls-21" x="88.72" y="118.21" width="14.75" height="14.75" transform="translate(192.19 251.17) rotate(-180)"/><rect class="cls-21" x="44.49" y="103.47" width="14.75" height="14.75"/><rect class="cls-8" x="132.96" y="177.19" width="14.75" height="14.75"/><rect class="cls-8" x="147.7" y="177.19" width="14.75" height="14.75"/><rect class="cls-8" x="147.7" y="162.45" width="14.75" height="14.75"/><rect class="cls-21" x="59.23" y="103.47" width="14.75" height="14.75"/><rect class="cls-21" x="59.23" y="118.21" width="14.75" height="14.75"/><rect class="cls-21" x="73.98" y="118.21" width="14.75" height="14.75"/><rect class="cls-21" x="88.72" y="73.98" width="14.75" height="14.75" transform="translate(192.19 162.7) rotate(-180)"/><rect class="cls-21" x="73.98" y="73.98" width="14.75" height="14.75" transform="translate(162.7 162.7) rotate(-180)"/><rect class="cls-21" x="59.23" y="73.98" width="14.75" height="14.75" transform="translate(133.21 162.7) rotate(-180)"/><rect class="cls-5" x="132.96" y="59.23" width="14.75" height="14.75" transform="translate(280.66 133.21) rotate(-180)"/><rect class="cls-5" x="132.96" y="73.98" width="14.75" height="14.75" transform="translate(280.66 162.7) rotate(-180)"/><rect class="cls-5" x="132.96" y="88.72" width="14.75" height="14.75" transform="translate(280.66 192.19) rotate(-180)"/><rect class="cls-5" x="132.96" y="103.47" width="14.75" height="14.75" transform="translate(280.66 221.68) rotate(-180)"/><rect class="cls-16" x="132.96" y="118.21" width="14.75" height="14.75" transform="translate(280.66 251.17) rotate(-180)"/><rect class="cls-12" x="29.74" y="44.49" width="14.75" height="14.75" transform="translate(74.23 103.72) rotate(-180)"/><rect class="cls-12" x="44.49" y="44.49" width="14.75" height="14.75" transform="translate(103.72 103.72) rotate(-180)"/><rect class="cls-12" x="59.23" y="44.49" width="14.75" height="14.75" transform="translate(133.21 103.72) rotate(-180)"/><rect class="cls-16" x="44.49" y="29.74" width="14.75" height="14.75" transform="translate(103.72 74.23) rotate(-180)"/><rect class="cls-16" x="59.23" y="29.74" width="14.75" height="14.75" transform="translate(133.21 74.23) rotate(-180)"/><rect class="cls-12" x="73.98" y="29.74" width="14.75" height="14.75" transform="translate(162.7 74.23) rotate(-180)"/><rect class="cls-12" x="88.72" y="29.74" width="14.75" height="14.75" transform="translate(192.19 74.23) rotate(-180)"/><rect class="cls-12" x="103.47" y="29.74" width="14.75" height="14.75" transform="translate(221.68 74.23) rotate(-180)"/><rect class="cls-12" x="103.47" y="29.74" width="14.75" height="14.75" transform="translate(221.68 74.23) rotate(-180)"/><rect class="cls-12" x="118.21" y="29.74" width="14.75" height="14.75" transform="translate(251.17 74.23) rotate(-180)"/><rect class="cls-6" x="44.49" y="88.72" width="14.75" height="14.75" transform="translate(103.72 192.19) rotate(-180)"/><rect class="cls-6" x="29.74" y="103.47" width="14.75" height="14.75" transform="translate(74.23 221.68) rotate(-180)"/><rect class="cls-12" x="132.96" y="29.74" width="14.75" height="14.75" transform="translate(280.66 74.23) rotate(-180)"/><rect class="cls-12" x="132.96" y="15" width="14.75" height="14.75" transform="translate(280.66 44.74) rotate(-180)"/><rect class="cls-12" x="118.21" y="29.74" width="14.75" height="14.75" transform="translate(251.17 74.23) rotate(-180)"/><rect class="cls-12" x="118.21" y="15" width="14.75" height="14.75" transform="translate(251.17 44.74) rotate(-180)"/><rect class="cls-12" x="103.47" y="15" width="14.75" height="14.75" transform="translate(221.68 44.74) rotate(-180)"/><rect class="cls-12" x="88.72" y="15" width="14.75" height="14.75" transform="translate(192.19 44.74) rotate(-180)"/><rect class="cls-12" x="73.98" y="15" width="14.75" height="14.75" transform="translate(162.7 44.74) rotate(-180)"/><rect class="cls-16" x="132.96" y="132.96" width="14.75" height="14.75" transform="translate(280.66 280.66) rotate(-180)"/><rect class="cls-16" x="147.7" y="147.7" width="14.75" height="14.75" transform="translate(310.15 310.15) rotate(-180)"/><rect class="cls-16" x="132.96" y="147.7" width="14.75" height="14.75" transform="translate(280.66 310.15) rotate(-180)"/><rect class="cls-16" x="132.96" y="162.45" width="14.75" height="14.75" transform="translate(280.66 339.64) rotate(-180)"/><rect class="cls-23" x="59.23" y="132.96" width="14.75" height="14.75" transform="translate(133.21 280.66) rotate(-180)"/><rect class="cls-23" x="59.23" y="132.96" width="14.75" height="14.75" transform="translate(133.21 280.66) rotate(-180)"/><rect class="cls-23" x="59.23" y="132.96" width="14.75" height="14.75" transform="translate(133.21 280.66) rotate(-180)"/><rect class="cls-16" x="59.23" y="147.7" width="14.75" height="14.75" transform="translate(133.21 310.15) rotate(-180)"/><rect class="cls-16" x="73.98" y="147.7" width="14.75" height="14.75" transform="translate(162.7 310.15) rotate(-180)"/><rect class="cls-2" x="88.72" y="147.7" width="14.75" height="14.75" transform="translate(192.19 310.15) rotate(-180)"/><rect class="cls-2" x="88.72" y="132.96" width="14.75" height="14.75" transform="translate(192.19 280.66) rotate(-180)"/><rect class="cls-2" x="73.98" y="132.96" width="14.75" height="14.75" transform="translate(162.7 280.66) rotate(-180)"/><rect class="cls-16" x="59.23" y="132.96" width="14.75" height="14.75" transform="translate(133.21 280.66) rotate(-180)"/><rect class="cls-2" x="103.47" y="132.96" width="14.75" height="14.75" transform="translate(221.68 280.66) rotate(-180)"/><rect class="cls-2" x="103.47" y="147.7" width="14.75" height="14.75" transform="translate(221.68 310.15) rotate(-180)"/><rect class="cls-16" x="73.98" y="162.45" width="14.75" height="14.75" transform="translate(162.7 339.64) rotate(-180)"/><rect class="cls-16" x="59.23" y="162.45" width="14.75" height="14.75" transform="translate(133.21 339.64) rotate(-180)"/><rect class="cls-16" x="59.23" y="177.19" width="14.75" height="14.75" transform="translate(133.21 369.13) rotate(-180)"/><rect class="cls-16" x="73.98" y="177.19" width="14.75" height="14.75" transform="translate(162.7 369.13) rotate(-180)"/><rect class="cls-16" x="88.72" y="177.19" width="14.75" height="14.75" transform="translate(192.19 369.13) rotate(-180)"/><rect class="cls-16" x="103.47" y="177.19" width="14.75" height="14.75" transform="translate(221.68 369.13) rotate(-180)"/><rect class="cls-16" x="88.72" y="162.45" width="14.75" height="14.75" transform="translate(192.19 339.64) rotate(-180)"/><rect class="cls-16" x="103.47" y="162.45" width="14.75" height="14.75" transform="translate(221.68 339.64) rotate(-180)"/><rect class="cls-16" x="59.23" y="15" width="14.75" height="14.75" transform="translate(133.21 44.74) rotate(-180)"/><rect class="cls-16" x="44.49" y="15" width="14.75" height="14.75" transform="translate(103.72 44.74) rotate(-180)"/><rect class="cls-16" x="29.74" y="15" width="14.75" height="14.75" transform="translate(74.23 44.74) rotate(-180)"/><rect class="cls-16" x="29.74" y="29.74" width="14.75" height="14.75" transform="translate(74.23 74.23) rotate(-180)"/><rect class="cls-16" x="44.49" y="29.74" width="14.75" height="14.75" transform="translate(103.72 74.23) rotate(-180)"/><rect class="cls-16" x="59.23" y="29.74" width="14.75" height="14.75" transform="translate(133.21 74.23) rotate(-180)"/><rect class="cls-12" x="73.98" y="29.74" width="14.75" height="14.75" transform="translate(162.7 74.23) rotate(-180)"/><rect class="cls-12" x="103.47" y="29.74" width="14.75" height="14.75" transform="translate(221.68 74.23) rotate(-180)"/><rect class="cls-16" x="73.98" y=".25" width="14.75" height="14.75" transform="translate(162.7 15.25) rotate(-180)"/><rect class="cls-15" x="118.21" y="221.43" width="14.75" height="14.75" transform="translate(251.17 457.6) rotate(-180)"/><rect class="cls-12" x="103.47" y=".25" width="14.75" height="14.75" transform="translate(221.68 15.25) rotate(-180)"/><rect class="cls-12" x="118.21" y=".25" width="14.75" height="14.75" transform="translate(251.17 15.25) rotate(-180)"/><rect class="cls-16" x="59.23" y=".25" width="14.75" height="14.75" transform="translate(133.21 15.25) rotate(-180)"/><rect class="cls-16" x="44.49" y="29.74" width="14.75" height="14.75" transform="translate(103.72 74.23) rotate(-180)"/><rect class="cls-16" x="29.74" y="29.74" width="14.75" height="14.75" transform="translate(74.23 74.23) rotate(-180)"/><rect class="cls-16" x="29.74" y="15" width="14.75" height="14.75" transform="translate(74.23 44.74) rotate(-180)"/><rect class="cls-12" x="132.96" y="29.74" width="14.75" height="14.75" transform="translate(280.66 74.23) rotate(-180)"/><rect class="cls-21" x="103.47" y="88.72" width="14.75" height="14.75" transform="translate(221.68 192.19) rotate(-180)"/><rect class="cls-21" x="88.72" y="88.72" width="14.75" height="14.75" transform="translate(192.19 192.19) rotate(-180)"/><rect class="cls-1" x="44.49" y="191.94" width="14.75" height="14.75" transform="translate(103.72 398.62) rotate(-180)"/><rect class="cls-1" x="44.49" y="206.68" width="14.75" height="14.75" transform="translate(103.72 428.11) rotate(-180)"/><rect class="cls-1" x="59.23" y="191.94" width="14.75" height="14.75" transform="translate(133.21 398.62) rotate(-180)"/><rect class="cls-1" x="73.98" y="191.94" width="14.75" height="14.75" transform="translate(162.7 398.62) rotate(-180)"/><rect class="cls-1" x="59.23" y="206.68" width="14.75" height="14.75" transform="translate(133.21 428.11) rotate(-180)"/><rect class="cls-1" x="88.72" y="191.94" width="14.75" height="14.75" transform="translate(192.19 398.62) rotate(-180)"/><rect class="cls-2" x="103.47" y="206.68" width="14.75" height="14.75" transform="translate(221.68 428.11) rotate(-180)"/><rect class="cls-2" x="118.21" y="206.68" width="14.75" height="14.75" transform="translate(251.17 428.11) rotate(-180)"/><rect class="cls-1" x="29.74" y="191.94" width="14.75" height="14.75" transform="translate(74.23 398.62) rotate(-180)"/><rect class="cls-7" x="73.98" y="132.96" width="14.75" height="14.75" transform="translate(162.7 280.66) rotate(-180)"/><rect class="cls-4" x="118.21" y="103.47" width="14.75" height="14.75" transform="translate(251.17 221.68) rotate(-180)"/><rect class="cls-4" x="73.98" y="103.47" width="14.75" height="14.75" transform="translate(162.7 221.68) rotate(-180)"/><rect class="cls-4" x="59.23" y="103.47" width="14.75" height="14.75" transform="translate(133.21 221.68) rotate(-180)"/><rect class="cls-4" x="44.49" y="103.47" width="14.75" height="14.75" transform="translate(103.72 221.68) rotate(-180)"/><rect class="cls-9" x="88.72" y="147.7" width="14.75" height="14.75" transform="translate(192.19 310.15) rotate(-180)"/><rect class="cls-9" x="88.72" y="132.96" width="14.75" height="14.75" transform="translate(192.19 280.66) rotate(-180)"/><rect class="cls-9" x="103.47" y="132.96" width="14.75" height="14.75" transform="translate(221.68 280.66) rotate(-180)"/><rect class="cls-9" x="103.47" y="147.7" width="14.75" height="14.75" transform="translate(221.68 310.15) rotate(-180)"/><rect class="cls-9" x="103.47" y="118.21" width="14.75" height="14.75" transform="translate(221.68 251.17) rotate(-180)"/><rect class="cls-9" x="103.47" y="103.47" width="14.75" height="14.75" transform="translate(221.68 221.68) rotate(-180)"/><rect class="cls-9" x="88.72" y="103.47" width="14.75" height="14.75" transform="translate(192.19 221.68) rotate(-180)"/><rect class="cls-19" x="29.74" y="118.21" width="14.75" height="14.75" transform="translate(74.23 251.17) rotate(-180)"/><rect class="cls-19" x="44.49" y="118.21" width="14.75" height="14.75" transform="translate(103.72 251.17) rotate(-180)"/><rect class="cls-19" x="59.23" y="118.21" width="14.75" height="14.75" transform="translate(133.21 251.17) rotate(-180)"/><rect class="cls-19" x="29.74" y="132.96" width="14.75" height="14.75" transform="translate(74.23 280.66) rotate(-180)"/><rect class="cls-19" x="44.49" y="132.96" width="14.75" height="14.75" transform="translate(103.72 280.66) rotate(-180)"/><rect class="cls-19" x="44.49" y="147.7" width="14.75" height="14.75" transform="translate(103.72 310.15) rotate(-180)"/><rect class="cls-19" x="44.49" y="177.19" width="14.75" height="14.75" transform="translate(103.72 369.13) rotate(-180)"/><rect class="cls-19" x="44.49" y="162.45" width="14.75" height="14.75" transform="translate(103.72 339.64) rotate(-180)"/><rect class="cls-19" x="29.74" y="177.19" width="14.75" height="14.75" transform="translate(74.23 369.13) rotate(-180)"/><rect class="cls-19" x="29.74" y="162.45" width="14.75" height="14.75" transform="translate(74.23 339.64) rotate(-180)"/><rect class="cls-21" x=".25" y="162.45" width="14.75" height="14.75"/><rect class="cls-21" x=".25" y="147.7" width="14.75" height="14.75"/><rect class="cls-21" x="29.74" y="147.7" width="14.75" height="14.75"/><rect class="cls-20" x="103.47" y="221.43" width="14.75" height="14.75" transform="translate(221.68 457.6) rotate(-180)"/><rect class="cls-22" x="44.49" y="221.43" width="14.75" height="14.75" transform="translate(103.72 457.6) rotate(-180)"/><rect class="cls-17" x="132.96" y="221.43" width="14.75" height="14.75" transform="translate(280.66 457.6) rotate(-180)"/><rect class="cls-17" x="118.21" y="221.43" width="14.75" height="14.75" transform="translate(251.17 457.6) rotate(-180)"/><rect class="cls-3" x="73.98" y="221.43" width="14.75" height="14.75" transform="translate(162.7 457.6) rotate(-180)"/><rect class="cls-3" x="59.23" y="221.43" width="14.75" height="14.75" transform="translate(133.21 457.6) rotate(-180)"/><rect class="cls-2" x="118.21" y="59.23" width="14.75" height="14.75" transform="translate(251.17 133.21) rotate(-180)"/><rect class="cls-2" x="73.98" y="59.23" width="14.75" height="14.75" transform="translate(162.7 133.21) rotate(-180)"/><rect class="cls-3" x="59.23" y="59.23" width="14.75" height="14.75" transform="translate(133.21 133.21) rotate(-180)"/><rect class="cls-8" x="88.72" y="59.23" width="14.75" height="14.75" transform="translate(192.19 133.21) rotate(-180)"/><rect class="cls-3" x="103.47" y="59.23" width="14.75" height="14.75" transform="translate(221.68 133.21) rotate(-180)"/><rect class="cls-5" x="29.74" y="59.23" width="14.75" height="14.75" transform="translate(74.23 133.21) rotate(-180)"/><rect class="cls-5" x="44.49" y="59.23" width="14.75" height="14.75" transform="translate(103.72 133.21) rotate(-180)"/><rect class="cls-6" x="29.74" y="73.98" width="14.75" height="14.75" transform="translate(74.23 162.7) rotate(-180)"/><rect class="cls-6" x="44.49" y="73.98" width="14.75" height="14.75" transform="translate(103.72 162.7) rotate(-180)"/><rect class="cls-16" x="59.23" y=".25" width="14.75" height="14.75" transform="translate(133.21 15.25) rotate(-180)"/><rect class="cls-12" x="59.23" y="29.74" width="14.75" height="14.75" transform="translate(133.21 74.23) rotate(-180)"/><rect class="cls-12" x="73.98" y="29.74" width="14.75" height="14.75" transform="translate(162.7 74.23) rotate(-180)"/><rect class="cls-16" x="44.49" y="15" width="14.75" height="14.75" transform="translate(103.72 44.74) rotate(-180)"/><rect class="cls-12" x="103.47" y=".25" width="14.75" height="14.75" transform="translate(221.68 15.25) rotate(-180)"/><rect class="cls-12" x="73.98" y=".25" width="14.75" height="14.75" transform="translate(162.7 15.25) rotate(-180)"/><rect class="cls-12" x="118.21" y=".25" width="14.75" height="14.75" transform="translate(251.17 15.25) rotate(-180)"/><rect class="cls-16" x="29.74" y="44.49" width="14.75" height="14.75" transform="translate(74.23 103.72) rotate(-180)"/><rect class="cls-16" x="44.49" y="44.49" width="14.75" height="14.75" transform="translate(103.72 103.72) rotate(-180)"/><rect class="cls-16" x="59.23" y="44.49" width="14.75" height="14.75" transform="translate(133.21 103.72) rotate(-180)"/><rect class="cls-16" x="44.49" y=".25" width="14.75" height="14.75" transform="translate(103.72 15.25) rotate(-180)"/><rect class="cls-4" x="73.98" y="118.21" width="14.75" height="14.75" transform="translate(162.7 251.17) rotate(-180)"/><rect class="cls-9" x="88.72" y="118.21" width="14.75" height="14.75" transform="translate(192.19 251.17) rotate(-180)"/><rect class="cls-2" x="15" y="103.47" width="14.75" height="14.75" transform="translate(44.74 221.68) rotate(-180)"/><rect class="cls-21" x="15" y="118.21" width="14.75" height="14.75" transform="translate(44.74 251.17) rotate(-180)"/><rect class="cls-13" x="15" y="177.19" width="14.75" height="14.75" transform="translate(44.74 369.13) rotate(-180)"/><rect class="cls-11" x="15" y="191.94" width="14.75" height="14.75" transform="translate(44.74 398.62) rotate(-180)"/><rect class="cls-18" x="15" y="132.96" width="14.75" height="14.75" transform="translate(44.74 280.66) rotate(-180)"/><rect class="cls-21" x="15" y="147.7" width="14.75" height="14.75"/><rect class="cls-21" x="15" y="162.45" width="14.75" height="14.75"/><rect class="cls-19" x="118.21" y="177.19" width="14.75" height="14.75" transform="translate(251.17 369.13) rotate(-180)"/><rect class="cls-19" x="118.21" y="162.45" width="14.75" height="14.75" transform="translate(251.17 339.64) rotate(-180)"/><rect class="cls-19" x="118.21" y="147.7" width="14.75" height="14.75" transform="translate(251.17 310.15) rotate(-180)"/><rect class="cls-19" x="118.21" y="132.96" width="14.75" height="14.75" transform="translate(251.17 280.66) rotate(-180)"/><rect class="cls-19" x="118.21" y="118.21" width="14.75" height="14.75" transform="translate(251.17 251.17) rotate(-180)"/><rect class="cls-2" x="118.21" y="191.94" width="14.75" height="14.75" transform="translate(251.17 398.62) rotate(-180)"/><rect class="cls-2" x="103.47" y="191.94" width="14.75" height="14.75" transform="translate(221.68 398.62) rotate(-180)"/><rect class="cls-12" x="132.96" y="15" width="14.75" height="14.75" transform="translate(280.66 44.74) rotate(-180)"/><rect class="cls-12" x="73.98" y="15" width="14.75" height="14.75" transform="translate(162.7 44.74) rotate(-180)"/><rect class="cls-12" x="59.23" y="15" width="14.75" height="14.75" transform="translate(133.21 44.74) rotate(-180)"/><rect class="cls-12" x="118.21" y="15" width="14.75" height="14.75" transform="translate(251.17 44.74) rotate(-180)"/><rect class="cls-12" x="88.72" y="29.74" width="14.75" height="14.75" transform="translate(192.19 74.23) rotate(-180)"/><rect class="cls-12" x="103.47" y="29.74" width="14.75" height="14.75" transform="translate(221.68 74.23) rotate(-180)"/><rect class="cls-12" x="118.21" y="29.74" width="14.75" height="14.75" transform="translate(251.17 74.23) rotate(-180)"/><rect class="cls-12" x="103.47" y="15" width="14.75" height="14.75" transform="translate(221.68 44.74) rotate(-180)"/><rect class="cls-12" x="88.72" y=".25" width="14.75" height="14.75" transform="translate(192.19 15.25) rotate(-180)"/><rect class="cls-12" x="88.72" y="15" width="14.75" height="14.75" transform="translate(192.19 44.74) rotate(-180)"/><rect class="cls-6" x="29.74" y="88.72" width="14.75" height="14.75" transform="translate(74.23 192.19) rotate(-180)"/><rect class="cls-14" x="132.96" y="44.49" width="14.75" height="14.75" transform="translate(280.66 103.72) rotate(-180)"/><rect class="cls-14" x="73.98" y="44.49" width="14.75" height="14.75" transform="translate(162.7 103.72) rotate(-180)"/><rect class="cls-14" x="88.72" y="44.49" width="14.75" height="14.75" transform="translate(192.19 103.72) rotate(-180)"/><rect class="cls-14" x="103.47" y="44.49" width="14.75" height="14.75" transform="translate(221.68 103.72) rotate(-180)"/><rect class="cls-14" x="118.21" y="44.49" width="14.75" height="14.75" transform="translate(251.17 103.72) rotate(-180)"/><rect class="cls-13" x="132.96" y="44.49" width="14.75" height="14.75" transform="translate(280.66 103.72) rotate(-180)"/><rect class="cls-13" x="147.7" y="44.49" width="14.75" height="14.75" transform="translate(310.15 103.72) rotate(-180)"/><rect class="cls-13" x="73.98" y="44.49" width="14.75" height="14.75" transform="translate(162.7 103.72) rotate(-180)"/><rect class="cls-13" x="88.72" y="44.49" width="14.75" height="14.75" transform="translate(192.19 103.72) rotate(-180)"/><rect class="cls-13" x="103.47" y="44.49" width="14.75" height="14.75" transform="translate(221.68 103.72) rotate(-180)"/><rect class="cls-13" x="118.21" y="44.49" width="14.75" height="14.75" transform="translate(251.17 103.72) rotate(-180)"/></g></svg>